<svg width="24" height="24" viewBox="0 0 24 24" fill="none" xmlns="http://www.w3.org/2000/svg">
<g id="activity (1) 1">
<path id="Vector" d="M14.4489 21.6737C14.263 21.6737 14.0821 21.6133 13.9335 21.5015C13.7849 21.3897 13.6767 21.2326 13.6252 21.054L9.51432 6.8117L6.83489 18.1963C6.79306 18.3757 6.69451 18.5369 6.55386 18.656C6.4132 18.775 6.23794 18.8455 6.05404 18.8571C5.87014 18.8714 5.68665 18.8248 5.53179 18.7246C5.37693 18.6244 5.25926 18.4761 5.19689 18.3026L2.83461 12H1.71432C1.48699 12 1.26897 11.9097 1.10823 11.7489C0.947484 11.5882 0.857178 11.3702 0.857178 11.1428C0.857178 10.9155 0.947484 10.6975 1.10823 10.5367C1.26897 10.376 1.48699 10.2857 1.71432 10.2857H3.42861C3.6032 10.2856 3.77366 10.3388 3.91719 10.4382C4.06072 10.5376 4.17047 10.6785 4.23175 10.842L5.81146 15.0574L8.59375 3.22884C8.63778 3.04485 8.74144 2.8806 8.88857 2.76168C9.0357 2.64276 9.21805 2.57587 9.40718 2.57141H9.42861C9.61454 2.57139 9.79545 2.63183 9.94403 2.74361C10.0926 2.8554 10.2008 3.01246 10.2523 3.19113L14.3726 17.46L17.166 5.80284C17.2088 5.62099 17.3099 5.4581 17.4538 5.33896C17.5977 5.21982 17.7765 5.15095 17.9632 5.14284C18.1498 5.1316 18.3348 5.18313 18.4887 5.28923C18.6427 5.39532 18.7567 5.54987 18.8126 5.72827L20.9443 12.1217H22.2857C22.5131 12.1217 22.7311 12.212 22.8918 12.3727C23.0526 12.5335 23.1429 12.7515 23.1429 12.9788C23.1429 13.2062 23.0526 13.4242 22.8918 13.5849C22.7311 13.7457 22.5131 13.836 22.2857 13.836H20.3263C20.1465 13.8358 19.9713 13.7792 19.8254 13.6739C19.6796 13.5687 19.5706 13.4203 19.5138 13.2497L18.1346 9.11484L15.2829 21.0163C15.2387 21.2002 15.1348 21.3644 14.9875 21.4832C14.8402 21.6019 14.6578 21.6686 14.4686 21.6728L14.4489 21.6737Z" fill="white"/>
</g>
</svg>
