<svg width="16" height="16" viewBox="0 0 16 16" fill="none" xmlns="http://www.w3.org/2000/svg">
<g id="angle arrow small right">
<g id="Layer 128">
<path id="Vector" d="M9.80646 8.47333L7.1398 11.14C7.01426 11.2655 6.844 11.3361 6.66646 11.3361C6.48893 11.3361 6.31867 11.2655 6.19313 11.14C6.0676 11.0145 5.99707 10.8442 5.99707 10.6667C5.99707 10.4891 6.0676 10.3189 6.19313 10.1933L8.39313 8L6.19313 5.80667C6.0676 5.68113 5.99707 5.51087 5.99707 5.33333C5.99707 5.24543 6.01438 5.15838 6.04802 5.07717C6.08166 4.99595 6.13097 4.92216 6.19313 4.86C6.25529 4.79784 6.32908 4.74854 6.4103 4.7149C6.49151 4.68126 6.57856 4.66394 6.66646 4.66394C6.844 4.66394 7.01426 4.73447 7.1398 4.86L9.80646 7.52667C9.86895 7.58864 9.91855 7.66238 9.95239 7.74362C9.98624 7.82486 10.0037 7.91199 10.0037 8C10.0037 8.08801 9.98624 8.17515 9.95239 8.25639C9.91855 8.33763 9.86895 8.41136 9.80646 8.47333Z" fill="#555555"/>
</g>
</g>
</svg>
