<svg width="24" height="24" viewBox="0 0 24 24" fill="none" xmlns="http://www.w3.org/2000/svg">
<g id="arrow left">
<g id="Layer 84">
<path id="Vector" d="M19.9999 12C19.9999 12.2652 19.8946 12.5196 19.707 12.7071C19.5195 12.8946 19.2652 13 18.9999 13H7.40994L11.7099 17.29C11.8982 17.4783 12.004 17.7337 12.004 18C12.004 18.2663 11.8982 18.5217 11.7099 18.71C11.5216 18.8983 11.2662 19.0041 10.9999 19.0041C10.7336 19.0041 10.4782 18.8983 10.2899 18.71L4.28994 12.71C4.19621 12.617 4.12182 12.5064 4.07105 12.3846C4.02028 12.2627 3.99414 12.132 3.99414 12C3.99414 11.868 4.02028 11.7373 4.07105 11.6154C4.12182 11.4936 4.19621 11.383 4.28994 11.29L10.2899 5.29C10.3832 5.19676 10.4939 5.1228 10.6157 5.07234C10.7375 5.02188 10.8681 4.99591 10.9999 4.99591C11.1318 4.99591 11.2624 5.02188 11.3842 5.07234C11.506 5.1228 11.6167 5.19676 11.7099 5.29C11.8032 5.38324 11.8771 5.49393 11.9276 5.61575C11.9781 5.73758 12.004 5.86814 12.004 6C12.004 6.13186 11.9781 6.26243 11.9276 6.38425C11.8771 6.50607 11.8032 6.61676 11.7099 6.71L7.40994 11H18.9999C19.2652 11 19.5195 11.1054 19.707 11.2929C19.8946 11.4804 19.9999 11.7348 19.9999 12Z" fill="#292929"/>
</g>
</g>
</svg>
