<svg width="22" height="22" viewBox="0 0 22 22" fill="none" xmlns="http://www.w3.org/2000/svg">
<g id="avatar (1) 1">
<g id="Group">
<g id="Group_2">
<path id="Vector" d="M10.9203 11.8542C10.9431 11.8542 10.9659 11.8542 10.9932 11.8542C11.0023 11.8542 11.0115 11.8542 11.0206 11.8542C11.0342 11.8542 11.0525 11.8542 11.0661 11.8542C12.401 11.8314 13.4807 11.3622 14.278 10.4647C16.032 8.48747 15.7404 5.09795 15.7085 4.77449C15.5946 2.34624 14.4465 1.18451 13.4989 0.642369C12.7928 0.236902 11.9682 0.0182232 11.0479 0H11.016C11.0115 0 11.0023 0 10.9978 0H10.9704C10.4648 0 9.47159 0.0820046 8.51943 0.624146C7.56271 1.16629 6.39642 2.32802 6.28252 4.77449C6.25063 5.09795 5.95906 8.48747 7.71305 10.4647C8.50576 11.3622 9.58548 11.8314 10.9203 11.8542ZM7.49892 4.88838C7.49892 4.87472 7.50348 4.86105 7.50348 4.85194C7.65382 1.58542 9.97273 1.23462 10.9659 1.23462H10.9841C10.9932 1.23462 11.0069 1.23462 11.0206 1.23462C12.2506 1.26196 14.3417 1.7631 14.483 4.85194C14.483 4.8656 14.483 4.87927 14.4875 4.88838C14.4921 4.92027 14.811 8.01822 13.3622 9.6492C12.7882 10.2961 12.0228 10.615 11.016 10.6241C11.0069 10.6241 11.0023 10.6241 10.9932 10.6241C10.9841 10.6241 10.9796 10.6241 10.9704 10.6241C9.96817 10.615 9.19824 10.2961 8.62876 9.6492C7.18457 8.02734 7.49437 4.91572 7.49892 4.88838Z" fill="#B0B0B0"/>
<path id="Vector_2" d="M20.3554 17.4761C20.3554 17.4715 20.3554 17.467 20.3554 17.4624C20.3554 17.426 20.3508 17.3895 20.3508 17.3485C20.3235 16.4465 20.2643 14.3371 18.287 13.6629C18.2734 13.6583 18.2551 13.6538 18.2415 13.6492C16.1868 13.1253 14.4784 11.9408 14.4602 11.9271C14.1823 11.7312 13.7996 11.7995 13.6037 12.0775C13.4078 12.3554 13.4761 12.738 13.754 12.9339C13.8315 12.9886 15.6447 14.2506 17.9135 14.8337C18.975 15.2118 19.0934 16.3462 19.1253 17.385C19.1253 17.426 19.1253 17.4624 19.1299 17.4989C19.1344 17.9089 19.1071 18.5421 19.0342 18.9066C18.2962 19.3257 15.4032 20.7745 11.0023 20.7745C6.61962 20.7745 3.70845 19.3212 2.96586 18.9021C2.89296 18.5376 2.86107 17.9043 2.87019 17.4943C2.87019 17.4579 2.87474 17.4214 2.87474 17.3804C2.90663 16.3417 3.02508 15.2073 4.08659 14.8292C6.35538 14.246 8.16859 12.9795 8.24604 12.9294C8.52394 12.7335 8.59228 12.3508 8.39638 12.0729C8.20048 11.795 7.81779 11.7267 7.53989 11.9226C7.52167 11.9362 5.82235 13.1207 3.75857 13.6446C3.74034 13.6492 3.72668 13.6538 3.71301 13.6583C1.73579 14.3371 1.67656 16.4465 1.64923 17.344C1.64923 17.385 1.64923 17.4214 1.64467 17.4579C1.64467 17.4624 1.64467 17.467 1.64467 17.4715C1.64012 17.7084 1.63556 18.9248 1.87702 19.5353C1.92258 19.6538 2.00458 19.754 2.11392 19.8223C2.2506 19.9134 5.52622 22 11.0069 22C16.4875 22 19.7631 19.9089 19.8998 19.8223C20.0046 19.754 20.0911 19.6538 20.1367 19.5353C20.3645 18.9294 20.3599 17.713 20.3554 17.4761Z" fill="#B0B0B0"/>
</g>
</g>
</g>
</svg>
