<svg width="24" height="23" viewBox="0 0 24 23" fill="none" xmlns="http://www.w3.org/2000/svg">
<g id="bell (4) 1">
<g id="28">
<path id="Vector" d="M21.0525 16.1828L19.77 14.4531C19.5949 14.218 19.5007 13.9383 19.5 13.6516V8.6875C19.5 6.8227 18.7098 5.03427 17.3033 3.71566C15.8968 2.39704 13.9891 1.65625 12 1.65625C10.0109 1.65625 8.10322 2.39704 6.6967 3.71566C5.29017 5.03427 4.5 6.8227 4.5 8.6875V13.6516C4.49927 13.9383 4.40506 14.218 4.23 14.4531L2.9475 16.1828C2.75331 16.3845 2.62561 16.6347 2.57985 16.903C2.53409 17.1713 2.57222 17.4463 2.68964 17.6947C2.80706 17.9431 2.99873 18.1543 3.24148 18.3028C3.48423 18.4513 3.76766 18.5306 4.0575 18.5313H8.325C8.49713 19.326 8.95705 20.0405 9.6268 20.5537C10.2966 21.0669 11.135 21.3473 12 21.3473C12.865 21.3473 13.7034 21.0669 14.3732 20.5537C15.043 20.0405 15.5029 19.326 15.675 18.5313H19.9425C20.2323 18.5306 20.5158 18.4513 20.7585 18.3028C21.0013 18.1543 21.1929 17.9431 21.3104 17.6947C21.4278 17.4463 21.4659 17.1713 21.4201 16.903C21.3744 16.6347 21.2467 16.3845 21.0525 16.1828ZM12 19.9375C11.5358 19.9363 11.0833 19.8005 10.7047 19.5487C10.3261 19.297 10.0397 18.9416 9.885 18.5313H14.115C13.9603 18.9416 13.6739 19.297 13.2953 19.5487C12.9166 19.8005 12.4642 19.9363 12 19.9375ZM4.0575 17.125C4.0914 17.0955 4.12159 17.0625 4.1475 17.0266L5.46 15.2547C5.81013 14.7844 5.99855 14.2251 6 13.6516V8.6875C6 7.19566 6.63214 5.76492 7.75736 4.71002C8.88258 3.65513 10.4087 3.0625 12 3.0625C13.5913 3.0625 15.1174 3.65513 16.2426 4.71002C17.3679 5.76492 18 7.19566 18 8.6875V13.6516C18.0014 14.2251 18.1899 14.7844 18.54 15.2547L19.8525 17.0266C19.8784 17.0625 19.9086 17.0955 19.9425 17.125H4.0575Z" fill="white"/>
</g>
</g>
</svg>
