<svg width="22" height="22" viewBox="0 0 22 22" fill="none" xmlns="http://www.w3.org/2000/svg">
<g id="Icon">
<circle id="Ellipse 5" cx="11" cy="11" r="11" fill="#F9F9F9"/>
<g id="Mask group">
<circle id="Ellipse 6" cx="11" cy="11" r="9" fill="#DF146E"/>
<g id="Group">
<path id="Vector" d="M14.5731 11.4493L10.0802 10.7698L10.6882 13.2897L14.5731 11.4493ZM14.7553 11.243L11.2226 6.58118L10.0687 10.5463L14.7553 11.243ZM9.8499 10.4921L6.1481 6L10.9958 6.55032L9.8499 10.4921ZM8.05394 8.63028L6 6.79084H6.53984L8.05394 8.63028ZM15.8582 8.9782L14.9891 11.2179L13.5794 9.36697L15.8582 8.9782ZM11.2363 13.2588L14.6473 11.9579L14.7919 11.5449L11.2363 13.2588ZM8.39122 15.625L9.85277 10.7535L10.5936 13.9238L8.39122 15.625ZM16.0665 8.99514L15.7072 9.9197L17 9.89853L16.0665 8.99514Z" fill="white"/>
</g>
</g>
</g>
</svg>
