<svg width="10" height="10" viewBox="0 0 10 10" fill="none" xmlns="http://www.w3.org/2000/svg">
<g id="cancel (4) 1" clip-path="url(#clip0_68_2373)">
<g id="Group">
<g id="Group_2">
<path id="Vector" d="M6.10138 5L9.84024 1.26097C9.94309 1.15804 9.99984 1.02073 10 0.874304C10 0.7278 9.94325 0.59032 9.84024 0.487556L9.5126 0.159995C9.40959 0.0568245 9.27228 0.000320435 9.12569 0.000320435C8.97935 0.000320435 8.84203 0.0568245 8.73902 0.159995L5.00016 3.89878L1.26114 0.159995C1.15829 0.0568245 1.02089 0.000320435 0.87439 0.000320435C0.728049 0.000320435 0.59065 0.0568245 0.487805 0.159995L0.16 0.487556C-0.0533333 0.70089 -0.0533333 1.04788 0.16 1.26097L3.89894 5L0.16 8.73886C0.0570732 8.84195 0.000406504 8.97926 0.000406504 9.12569C0.000406504 9.27211 0.0570732 9.40943 0.16 9.51243L0.487724 9.84C0.590569 9.94308 0.728049 9.99967 0.874309 9.99967C1.02081 9.99967 1.15821 9.94308 1.26106 9.84L5.00008 6.10113L8.73894 9.84C8.84195 9.94308 8.97927 9.99967 9.12561 9.99967H9.12577C9.27219 9.99967 9.40951 9.94308 9.51252 9.84L9.84016 9.51243C9.94301 9.40951 9.99976 9.27211 9.99976 9.12569C9.99976 8.97926 9.94301 8.84195 9.84016 8.73894L6.10138 5Z" fill="white"/>
</g>
</g>
</g>
<defs>
<clipPath id="clip0_68_2373">
<rect width="10" height="10" fill="white"/>
</clipPath>
</defs>
</svg>
