<svg width="15" height="15" viewBox="0 0 15 15" fill="none" xmlns="http://www.w3.org/2000/svg">
<g id="wall-clock (1) 1" clip-path="url(#clip0_68_2345)">
<g id="Group">
<g id="Group_2">
<g id="Group_3">
<path id="Vector" d="M13.4299 11.1528C13.1703 10.9596 12.8032 11.0135 12.6101 11.2731C12.5038 11.4159 12.3902 11.556 12.2722 11.6894C12.0579 11.9319 12.0806 12.3022 12.3231 12.5165C12.4346 12.6151 12.573 12.6635 12.7109 12.6635C12.873 12.6635 13.0344 12.5966 13.1502 12.4656C13.2899 12.3076 13.4245 12.1417 13.5503 11.9726C13.7434 11.713 13.6896 11.3459 13.4299 11.1528Z" fill="white"/>
<path id="Vector_2" d="M14.4098 8.40487C14.0938 8.33605 13.7815 8.53659 13.7127 8.85276C13.6748 9.0267 13.629 9.20095 13.5766 9.37076C13.481 9.67996 13.6542 10.008 13.9634 10.1036C14.021 10.1213 14.0793 10.1298 14.1366 10.1298C14.3868 10.1298 14.6185 9.96827 14.6962 9.71667C14.7585 9.51516 14.8128 9.30836 14.8577 9.10202C14.9266 8.78585 14.726 8.47372 14.4098 8.40487Z" fill="white"/>
<path id="Vector_3" d="M10.6095 13.0293C10.454 13.1161 10.2929 13.1973 10.1308 13.2705C9.83588 13.4037 9.70478 13.7507 9.83796 14.0457C9.93581 14.2624 10.1491 14.3906 10.3723 14.3906C10.4529 14.3906 10.5349 14.3739 10.6131 14.3385C10.8054 14.2517 10.9964 14.1555 11.1808 14.0525C11.4634 13.8947 11.5645 13.5378 11.4067 13.2553C11.249 12.9727 10.8921 12.8716 10.6095 13.0293Z" fill="white"/>
<path id="Vector_4" d="M6.91396 2.8125V7.25731L4.76536 9.40588C4.53655 9.63472 4.53655 10.0057 4.76536 10.2345C4.87979 10.3489 5.0297 10.4061 5.1797 10.4061C5.32964 10.4061 5.47961 10.3489 5.59405 10.2345L7.91424 7.91432C8.02411 7.80445 8.08583 7.65539 8.08583 7.5V2.8125C8.08583 2.48889 7.82351 2.22656 7.4999 2.22656C7.17628 2.22656 6.91396 2.48889 6.91396 2.8125Z" fill="white"/>
<path id="Vector_5" d="M14.4141 1.25977C14.0904 1.25977 13.8281 1.52209 13.8281 1.8457V3.47273C12.4643 1.33383 10.0825 0 7.5 0C5.49668 0 3.61327 0.780147 2.19668 2.19668C0.780147 3.61327 0 5.49668 0 7.5C0 9.50332 0.780147 11.3867 2.19668 12.8033C3.61327 14.2199 5.49668 15 7.5 15C7.50495 15 7.50973 14.9994 7.51465 14.9993C7.51957 14.9994 7.52435 15 7.5293 15C7.74047 15 7.95372 14.9911 8.16319 14.9736C8.48566 14.9466 8.72519 14.6633 8.69821 14.3408C8.67117 14.0183 8.38825 13.7787 8.0654 13.8058C7.88833 13.8206 7.70798 13.8281 7.5293 13.8281C7.52435 13.8281 7.51957 13.8287 7.51465 13.8289C7.50973 13.8287 7.50495 13.8281 7.5 13.8281C4.01065 13.8281 1.17188 10.9893 1.17188 7.5C1.17188 4.01065 4.01065 1.17188 7.5 1.17188C9.74877 1.17188 11.8171 2.3705 12.9473 4.27734H11.3362C11.0126 4.27734 10.7503 4.53967 10.7503 4.86328C10.7503 5.18689 11.0126 5.44922 11.3362 5.44922H13.125C13.4818 5.44922 13.8157 5.34894 14.0999 5.17521C14.1182 5.16478 14.1358 5.15355 14.1525 5.14145C14.6625 4.80598 15 4.22892 15 3.57422V1.8457C15 1.52209 14.7377 1.25977 14.4141 1.25977Z" fill="white"/>
</g>
</g>
</g>
</g>
<defs>
<clipPath id="clip0_68_2345">
<rect width="15" height="15" fill="white"/>
</clipPath>
</defs>
</svg>
