<svg width="12" height="12" viewBox="0 0 12 12" fill="none" xmlns="http://www.w3.org/2000/svg">
<g id="copy (4) 2">
<g id="Layer 2">
<path id="Vector" d="M7.5 0.625H2.5C1.74061 0.625 1.125 1.24061 1.125 2V8C1.125 8.75939 1.74061 9.375 2.5 9.375H7.5C8.25939 9.375 8.875 8.75939 8.875 8V2C8.875 1.24061 8.25939 0.625 7.5 0.625Z" fill="#C8C8C8"/>
<path id="Vector_2" d="M9.5 11.375H4.5C4.13541 11.3747 3.78583 11.2298 3.52802 10.972C3.27022 10.7142 3.12526 10.3646 3.125 10V4C3.12526 3.63541 3.27022 3.28583 3.52802 3.02802C3.78583 2.77022 4.13541 2.62526 4.5 2.625H9.5C9.86459 2.62526 10.2142 2.77022 10.472 3.02802C10.7298 3.28583 10.8747 3.63541 10.875 4V10C10.8747 10.3646 10.7298 10.7142 10.472 10.972C10.2142 11.2298 9.86459 11.3747 9.5 11.375ZM4.5 3.375C4.33432 3.37526 4.1755 3.4412 4.05835 3.55835C3.9412 3.6755 3.87526 3.83432 3.875 4V10C3.87526 10.1657 3.9412 10.3245 4.05835 10.4417C4.1755 10.5588 4.33432 10.6247 4.5 10.625H9.5C9.66568 10.6247 9.8245 10.5588 9.94165 10.4417C10.0588 10.3245 10.1247 10.1657 10.125 10V4C10.1247 3.83432 10.0588 3.6755 9.94165 3.55835C9.8245 3.4412 9.66568 3.37526 9.5 3.375H4.5Z" fill="#C8C8C8"/>
</g>
</g>
</svg>
