<svg width="14" height="14" viewBox="0 0 14 14" fill="none" xmlns="http://www.w3.org/2000/svg">
<g id="exchange (10) 1">
<g id="Solid">
<path id="Vector" d="M12.687 8.75H2.89634L3.96356 7.6828C4.08664 7.55972 4.15578 7.3928 4.15578 7.21875C4.15578 7.0447 4.08664 6.87777 3.96356 6.7547C3.84049 6.63162 3.67357 6.56248 3.49951 6.56248C3.32546 6.56248 3.15854 6.63162 3.03546 6.7547L0.847962 8.9422C0.787021 9.00314 0.738679 9.07548 0.705697 9.1551C0.672715 9.23473 0.655739 9.32007 0.655739 9.40625C0.655739 9.49243 0.672715 9.57777 0.705697 9.65739C0.738679 9.73701 0.787021 9.80936 0.847962 9.8703L3.03546 12.0578C3.15854 12.1809 3.32546 12.25 3.49951 12.25C3.67357 12.25 3.84049 12.1809 3.96356 12.0578C4.08664 11.9347 4.15578 11.7678 4.15578 11.5937C4.15578 11.4197 4.08664 11.2528 3.96356 11.1297L2.89634 10.0625H12.687C12.8611 10.0625 13.028 9.99336 13.1511 9.87029C13.2741 9.74722 13.3433 9.5803 13.3433 9.40625C13.3433 9.2322 13.2741 9.06528 13.1511 8.94221C13.028 8.81914 12.8611 8.75 12.687 8.75Z" fill="white"/>
<path id="Vector_2" d="M1.31248 5.25H11.1032L10.0359 6.3172C9.91285 6.44027 9.84371 6.6072 9.84371 6.78125C9.84371 6.9553 9.91285 7.12222 10.0359 7.2453C10.159 7.36837 10.3259 7.43752 10.5 7.43752C10.674 7.43752 10.841 7.36837 10.964 7.2453L13.1515 5.0578C13.2125 4.99686 13.2608 4.92451 13.2938 4.84489C13.3268 4.76527 13.3438 4.67993 13.3438 4.59375C13.3438 4.50757 13.3268 4.42223 13.2938 4.3426C13.2608 4.26298 13.2125 4.19064 13.1515 4.1297L10.964 1.9422C10.841 1.81912 10.674 1.74998 10.5 1.74998C10.3259 1.74998 10.159 1.81912 10.0359 1.9422C9.91285 2.06527 9.84371 2.2322 9.84371 2.40625C9.84371 2.5803 9.91285 2.74723 10.0359 2.8703L11.1032 3.9375H1.31248C1.13843 3.9375 0.97151 4.00664 0.848439 4.12971C0.725368 4.25278 0.656227 4.4197 0.656227 4.59375C0.656227 4.7678 0.725368 4.93472 0.848439 5.05779C0.97151 5.18086 1.13843 5.25 1.31248 5.25Z" fill="white"/>
</g>
</g>
</svg>
