<svg width="33" height="33" viewBox="0 0 33 33" fill="none" xmlns="http://www.w3.org/2000/svg">
<g id="Icon">
<rect id="Rectangle 549" x="0.5" y="0.5" width="32" height="32" rx="3.5" stroke="#E9E9E9"/>
<g id="Group">
<path id="Vector" d="M20.5235 10C18.2481 10 16.397 11.8511 16.397 14.1265C16.397 16.4018 18.2481 18.253 20.5235 18.253C22.7988 18.253 24.6499 16.4018 24.6499 14.1265C24.6499 11.8511 22.7988 10 20.5235 10ZM20.5235 17.336C18.7537 17.336 17.314 15.8962 17.314 14.1265C17.314 12.3568 18.7537 10.917 20.5235 10.917C22.2932 10.917 23.7329 12.3568 23.7329 14.1265C23.7329 15.8962 22.2932 17.336 20.5235 17.336Z" fill="#0A146E"/>
<path id="Vector_2" d="M19.3774 13.2095C19.6307 13.2095 19.8359 13.0042 19.8359 12.751C19.8359 12.4978 19.6307 12.2925 19.3774 12.2925C19.1242 12.2925 18.9189 12.4978 18.9189 12.751C18.9189 13.0042 19.1242 13.2095 19.3774 13.2095Z" fill="#0A146E"/>
<path id="Vector_3" d="M21.6699 15.9605C21.9231 15.9605 22.1284 15.7552 22.1284 15.502C22.1284 15.2488 21.9231 15.0435 21.6699 15.0435C21.4167 15.0435 21.2114 15.2488 21.2114 15.502C21.2114 15.7552 21.4167 15.9605 21.6699 15.9605Z" fill="#0A146E"/>
<path id="Vector_4" d="M21.9635 12.3988C21.7689 12.2367 21.4798 12.263 21.3177 12.4575L19.0252 15.2085C18.8631 15.403 18.8894 15.6921 19.0839 15.8542C19.278 16.016 19.5672 15.9905 19.7297 15.7955L22.0222 13.0445C22.1843 12.85 22.158 12.5609 21.9635 12.3988Z" fill="#0A146E"/>
<path id="Vector_5" d="M22.4753 18.8014L20.48 20.2751C20.2854 20.4142 20.0721 20.5198 19.8488 20.5913C19.9674 20.2481 19.9473 19.8802 19.7903 19.5511C19.6279 19.2108 19.3416 18.9577 18.9829 18.8381L14.9996 17.5203C13.8008 17.1205 12.1881 17.2934 11.1115 18.253H9.4585C9.20529 18.253 9 18.4583 9 18.7115V23.2965C9 23.5497 9.20529 23.755 9.4585 23.755H11.2925C11.5457 23.755 11.751 23.5497 11.751 23.2965V22.9539L15.3471 23.7711C16.003 23.9212 16.6751 24 17.297 24C17.3255 24 17.3538 23.9999 17.382 23.9995C19.1222 23.9792 20.8029 23.4249 22.2425 22.3968L24.0742 21.0399C24.7155 20.5819 24.8412 19.677 24.3488 19.0614C23.8926 18.4911 23.0696 18.3769 22.4753 18.8014ZM10.834 22.838H9.917V19.17H10.834V22.838ZM23.5412 20.2937L21.7095 21.6505C20.4233 22.5692 18.9232 23.0644 17.3713 23.0825C16.7976 23.0894 16.168 23.0182 15.5511 22.877L11.751 22.0135V18.9116C12.7389 18.0541 14.1028 18.1879 14.7106 18.3905L18.6938 19.7084C18.813 19.7481 18.9085 19.8325 18.9626 19.9459C19.0167 20.0593 19.0222 20.1866 18.9781 20.3043C18.8911 20.5362 18.6389 20.6566 18.4038 20.5782C18.4033 20.5781 18.4029 20.578 18.4024 20.5778L15.5932 19.6516C15.3527 19.5723 15.0935 19.7029 15.0142 19.9434C14.9349 20.1839 15.0655 20.4431 15.306 20.5224L18.1326 21.4544C19.1034 21.778 20.1802 21.6161 21.013 21.0213L23.0082 19.5476C23.2063 19.406 23.4806 19.4442 23.6327 19.6342C23.7966 19.839 23.7563 20.1401 23.5412 20.2937Z" fill="#0A146E"/>
</g>
</g>
</svg>
