<svg width="19" height="19" viewBox="0 0 19 19" fill="none" xmlns="http://www.w3.org/2000/svg">
<g id="home 1" clip-path="url(#clip0_68_2839)">
<g id="Layer 2">
<path id="Vector" d="M3.30719 18.4953H15.6928C16.4125 18.4922 17.1018 18.2045 17.6101 17.695C18.1185 17.1856 18.4047 16.4957 18.4062 15.776V6.58471C18.4033 6.09748 18.2695 5.62 18.0188 5.2022C17.7681 4.7844 17.4098 4.44162 16.9812 4.20971L10.8003 0.831275C10.4022 0.614572 9.95621 0.501038 9.50297 0.501038C9.04973 0.501038 8.60371 0.614572 8.20562 0.831275L2.00687 4.1919C1.57837 4.42381 1.22004 4.76658 0.969355 5.18439C0.718674 5.60219 0.584848 6.07967 0.581875 6.5669V15.776C0.583447 16.4977 0.871271 17.1894 1.3822 17.6992C1.89312 18.209 2.58542 18.4953 3.30719 18.4953ZM9.5 1.68628C9.75496 1.6859 10.006 1.74916 10.2303 1.87034L16.4291 5.2369C16.6695 5.37006 16.8697 5.56545 17.0086 5.80258C17.1476 6.03972 17.2201 6.30987 17.2188 6.58471V15.776C17.2188 16.1822 17.0574 16.5719 16.7701 16.8592C16.4828 17.1464 16.0932 17.3078 15.6869 17.3078H3.30719C2.90194 17.3063 2.51382 17.1442 2.22782 16.8571C1.94182 16.57 1.78125 16.1812 1.78125 15.776V6.58471C1.78103 6.30868 1.8554 6.03771 1.99649 5.80046C2.13759 5.56321 2.34017 5.3685 2.58281 5.2369L8.76969 1.87628C8.99347 1.75303 9.24453 1.68772 9.5 1.68628Z" fill="white"/>
<path id="Vector_2" d="M9.5 15.8888C10.3265 15.889 11.1273 15.6018 11.7653 15.0764C12.4033 14.5511 12.8388 13.8202 12.9972 13.0091C13.0101 12.924 13.0044 12.8371 12.9804 12.7545C12.9564 12.6718 12.9147 12.5954 12.8582 12.5304C12.8017 12.4655 12.7318 12.4136 12.6533 12.3783C12.5747 12.3431 12.4895 12.3253 12.4034 12.3263C12.262 12.3242 12.1244 12.3728 12.0156 12.4631C11.9067 12.5535 11.8337 12.6797 11.8097 12.8191C11.6979 13.3528 11.4058 13.8318 10.9825 14.1756C10.5592 14.5194 10.0305 14.7071 9.48515 14.7071C8.93983 14.7071 8.41112 14.5194 7.98782 14.1756C7.56453 13.8318 7.27244 13.3528 7.16062 12.8191C7.13659 12.6797 7.06357 12.5535 6.95471 12.4631C6.84586 12.3728 6.70832 12.3242 6.56687 12.3263C6.4808 12.3253 6.39555 12.3431 6.31703 12.3783C6.2385 12.4136 6.16858 12.4655 6.1121 12.5304C6.05562 12.5954 6.01394 12.6718 5.98994 12.7545C5.96594 12.8371 5.9602 12.924 5.97312 13.0091C6.13248 13.8253 6.57233 14.56 7.21647 15.0859C7.86061 15.6119 8.66844 15.8959 9.5 15.8888Z" fill="white"/>
</g>
</g>
<defs>
<clipPath id="clip0_68_2839">
<rect width="19" height="19" fill="white" transform="matrix(-1 0 0 1 19 0)"/>
</clipPath>
</defs>
</svg>
