<svg width="18" height="18" viewBox="0 0 18 18" fill="none" xmlns="http://www.w3.org/2000/svg">
<g id="internet 1" clip-path="url(#clip0_39_258)">
<path id="Vector" d="M15.364 15.364C13.6641 17.0638 11.4041 18 9.00014 18H8.99986C6.59592 18 4.33589 17.0638 2.63603 15.364C0.936172 13.6641 0 11.4039 0 9C0 6.59605 0.936172 4.33589 2.63603 2.63603C4.33589 0.936172 6.59605 0 9 0C11.4039 0 13.6641 0.936172 15.364 2.63603C17.0638 4.33589 18 6.59605 18 9C18 11.4039 17.0638 13.6641 15.364 15.364ZM15.9519 5.15685H13.3178C13.6707 6.19093 13.8833 7.31058 13.9329 8.47266H16.9273C16.8486 7.27625 16.5039 6.15152 15.9519 5.15685ZM9 1.13269C7.87747 1.80066 6.94652 2.83598 6.2769 4.10216H11.7231C11.0535 2.83598 10.1225 1.80066 9 1.13269ZM5.80023 5.15685C5.41241 6.17432 5.17731 7.29781 5.12292 8.47266H12.8771C12.8227 7.29781 12.5874 6.17432 12.1996 5.15685H5.80023ZM1.07268 8.47266H4.06714C4.11671 7.31058 4.3293 6.19093 4.68224 5.15685H2.04813C1.49606 6.15152 1.15137 7.27625 1.07268 8.47266ZM2.04813 12.8432H4.68224C4.3293 11.8091 4.11671 10.6894 4.06714 9.52734H1.07268C1.15137 10.7238 1.49606 11.8485 2.04813 12.8432ZM9 16.8673C10.1225 16.1993 11.0535 15.164 11.7231 13.8978H6.2769C6.94652 15.164 7.87747 16.1993 9 16.8673ZM12.1998 12.8432C12.5876 11.8257 12.8227 10.7022 12.8771 9.52734H5.12292C5.17731 10.7022 5.41255 11.8257 5.80037 12.8432H12.1998ZM16.9273 9.52734H13.9329C13.8833 10.6894 13.6707 11.8091 13.3178 12.8432H15.9519C16.5039 11.8485 16.8486 10.7238 16.9273 9.52734ZM12.8955 13.8978C12.3942 14.9805 11.7274 15.9373 10.9267 16.7086C12.6645 16.274 14.1777 15.2662 15.252 13.8978H12.8955ZM7.07327 16.7086C6.27264 15.9373 5.60577 14.9805 5.10452 13.8978H2.74796C3.82228 15.2662 5.33551 16.274 7.07327 16.7086ZM5.10452 4.10216C5.60577 3.01945 6.27264 2.06268 7.07327 1.29144C5.33551 1.72595 3.82228 2.73381 2.74796 4.10216H5.10452ZM10.9267 1.29144C11.7274 2.06268 12.3942 3.01959 12.8955 4.10216H15.252C14.1777 2.73381 12.6645 1.72595 10.9267 1.29144Z" fill="#B0B0B0"/>
</g>
<defs>
<clipPath id="clip0_39_258">
<rect width="18" height="18" fill="white" transform="matrix(1 0 0 -1 0 18)"/>
</clipPath>
</defs>
</svg>
