<svg width="21" height="21" viewBox="0 0 21 21" fill="none" xmlns="http://www.w3.org/2000/svg">
<g id="padlock (1) 1" clip-path="url(#clip0_39_477)">
<path id="Vector" d="M16.4062 21H4.59375C3.50875 21 2.625 20.1171 2.625 19.0312V9.84375C2.625 8.75787 3.50875 7.875 4.59375 7.875H16.4062C17.4913 7.875 18.375 8.75787 18.375 9.84375V19.0312C18.375 20.1171 17.4913 21 16.4062 21ZM4.59375 9.1875C4.23238 9.1875 3.9375 9.4815 3.9375 9.84375V19.0312C3.9375 19.3935 4.23238 19.6875 4.59375 19.6875H16.4062C16.7676 19.6875 17.0625 19.3935 17.0625 19.0312V9.84375C17.0625 9.4815 16.7676 9.1875 16.4062 9.1875H4.59375Z" fill="#B0B0B0"/>
<path id="Vector_2" d="M15.0938 9.1875C14.7315 9.1875 14.4375 8.8935 14.4375 8.53125V5.25C14.4375 3.07912 12.6709 1.3125 10.5 1.3125C8.32912 1.3125 6.5625 3.07912 6.5625 5.25V8.53125C6.5625 8.8935 6.2685 9.1875 5.90625 9.1875C5.544 9.1875 5.25 8.8935 5.25 8.53125V5.25C5.25 2.35462 7.60462 0 10.5 0C13.3954 0 15.75 2.35462 15.75 5.25V8.53125C15.75 8.8935 15.456 9.1875 15.0938 9.1875Z" fill="#B0B0B0"/>
<path id="Vector_3" d="M10.5 14.875C9.53487 14.875 8.75 14.0901 8.75 13.125C8.75 12.1599 9.53487 11.375 10.5 11.375C11.4651 11.375 12.25 12.1599 12.25 13.125C12.25 14.0901 11.4651 14.875 10.5 14.875ZM10.5 12.6875C10.2594 12.6875 10.0625 12.8835 10.0625 13.125C10.0625 13.3665 10.2594 13.5625 10.5 13.5625C10.7406 13.5625 10.9375 13.3665 10.9375 13.125C10.9375 12.8835 10.7406 12.6875 10.5 12.6875Z" fill="#B0B0B0"/>
<path id="Vector_4" d="M10.5 17.5C10.1377 17.5 9.84375 17.206 9.84375 16.8438V14.4375C9.84375 14.0753 10.1377 13.7812 10.5 13.7812C10.8622 13.7812 11.1562 14.0753 11.1562 14.4375V16.8438C11.1562 17.206 10.8622 17.5 10.5 17.5Z" fill="#B0B0B0"/>
</g>
<defs>
<clipPath id="clip0_39_477">
<rect width="21" height="21" fill="white"/>
</clipPath>
</defs>
</svg>
