<svg width="19" height="19" viewBox="0 0 19 19" fill="none" xmlns="http://www.w3.org/2000/svg">
<g id="phone 1" clip-path="url(#clip0_39_468)">
<path id="Vector" d="M18.0648 13.6889C18.0145 13.4987 17.9248 13.3211 17.8016 13.1677C17.6783 13.0143 17.5243 12.8885 17.3494 12.7983L13.677 10.8953C13.3807 10.7382 13.0378 10.6928 12.7108 10.7675C12.3838 10.8422 12.0946 11.0319 11.8958 11.302L11.302 12.1155C11.2715 12.1577 11.2266 12.1874 11.1758 12.1989C11.1249 12.2104 11.0716 12.2029 11.0259 12.1778C10.1528 11.6809 9.35336 11.0644 8.65094 10.3461C7.93268 9.64365 7.31614 8.84425 6.81922 7.97109C6.79416 7.92539 6.78667 7.8721 6.79815 7.82125C6.80963 7.7704 6.8393 7.7255 6.88157 7.695L7.69203 7.10125C7.96219 6.90248 8.1519 6.61322 8.22656 6.28624C8.30122 5.95926 8.25586 5.61633 8.09875 5.32L6.20766 1.65063C6.11684 1.47549 5.99014 1.32145 5.83581 1.19856C5.68148 1.07567 5.50299 0.986672 5.31196 0.937376C5.12094 0.888079 4.92167 0.879587 4.72714 0.912453C4.53262 0.94532 4.3472 1.01881 4.18297 1.12813L1.87625 2.67188C1.55235 2.88754 1.29081 3.18454 1.11783 3.53311C0.944844 3.88168 0.866494 4.26958 0.890628 4.65797C0.921158 5.31463 1.00957 5.96732 1.15485 6.60844C1.78125 9.025 3.29235 11.5098 5.39125 13.6117C7.49016 15.7136 9.97797 17.2188 12.3945 17.8392C13.0357 17.9844 13.6883 18.0729 14.345 18.1034H14.4934C14.8557 18.1026 15.2123 18.0132 15.5321 17.843C15.8519 17.6727 16.1252 17.4268 16.3281 17.1267L17.8659 14.82C17.9769 14.6561 18.052 14.4706 18.0863 14.2757C18.1206 14.0808 18.1133 13.8808 18.0648 13.6889ZM16.8773 14.158L15.3484 16.4677C15.247 16.6175 15.1081 16.7382 14.9457 16.8178C14.7832 16.8975 14.6028 16.9334 14.4222 16.9219C13.8398 16.895 13.2608 16.8185 12.6914 16.6933C10.4767 16.1173 8.18485 14.725 6.23438 12.7656C4.28391 10.8062 2.88563 8.52328 2.30969 6.30859C2.18343 5.7393 2.10596 5.16027 2.07813 4.57781C2.06627 4.39761 2.10199 4.21745 2.18171 4.0554C2.26143 3.89335 2.38235 3.75511 2.53235 3.65453L4.83907 2.11672C4.87418 2.09321 4.91556 2.0808 4.95782 2.08109H5.01422C5.04345 2.08871 5.07074 2.10244 5.09428 2.12138C5.11782 2.14031 5.13708 2.16402 5.15078 2.19094L7.05078 5.86328C7.0744 5.90882 7.08109 5.96126 7.06968 6.01127C7.05826 6.06128 7.02948 6.10562 6.98844 6.13641L6.17797 6.73016C5.90314 6.93462 5.71273 7.23267 5.64271 7.56798C5.5727 7.9033 5.62793 8.25264 5.79797 8.55C6.34745 9.51048 7.02677 10.3906 7.81672 11.1655C8.59155 11.9555 9.47167 12.6348 10.4322 13.1842C10.7295 13.3543 11.0789 13.4095 11.4142 13.3395C11.7495 13.2695 12.0476 13.079 12.252 12.8042L12.8458 11.9908C12.8766 11.9497 12.9209 11.921 12.9709 11.9095C13.0209 11.8981 13.0734 11.9048 13.1189 11.9284L16.7913 13.8284C16.8181 13.8425 16.8418 13.8621 16.8606 13.8858C16.8794 13.9096 16.8931 13.9371 16.9006 13.9665C16.9082 13.9959 16.9095 14.0265 16.9045 14.0564C16.8994 14.0863 16.8882 14.1149 16.8714 14.1402L16.8773 14.158Z" fill="#B0B0B0"/>
</g>
<defs>
<clipPath id="clip0_39_468">
<rect width="19" height="19" fill="white"/>
</clipPath>
</defs>
</svg>
