<svg width="15" height="15" viewBox="0 0 15 15" fill="none" xmlns="http://www.w3.org/2000/svg">
<g id="refund (1) 1" clip-path="url(#clip0_68_2381)">
<g id="Layer 2">
<g id="refund">
<path id="refund_2" d="M15 7.49984C15.0013 8.48383 14.8086 9.45843 14.4329 10.3679C14.0572 11.2774 13.5059 12.1038 12.8106 12.8001C12.1152 13.4963 11.2895 14.0487 10.3805 14.4255C9.47153 14.8024 8.49718 14.9963 7.51318 14.9963C6.52918 14.9963 5.55484 14.8024 4.64586 14.4255C3.73689 14.0487 2.91112 13.4963 2.21578 12.8001C1.52044 12.1038 0.969162 11.2774 0.593484 10.3679C0.217805 9.45843 0.0250911 8.48383 0.0263625 7.49984C0.0263625 7.36723 0.0790409 7.24005 0.172809 7.14628C0.266577 7.05252 0.393754 6.99984 0.526363 6.99984C0.658971 6.99984 0.786148 7.05252 0.879916 7.14628C0.973684 7.24005 1.02636 7.36723 1.02636 7.49984C1.02802 9.09271 1.61511 10.6294 2.67597 11.8176C3.73683 13.0058 5.19743 13.7626 6.77994 13.9441C8.36244 14.1255 9.95644 13.719 11.2587 12.8017C12.561 11.8845 13.4807 10.5206 13.8428 8.9694C14.205 7.41824 13.9843 5.78808 13.2229 4.389C12.4614 2.98992 11.2122 1.91955 9.71298 1.3815C8.21373 0.843442 6.569 0.875241 5.09167 1.47085C3.61434 2.06645 2.40747 3.18431 1.70065 4.61177H2.7461C2.87871 4.61177 3.00589 4.66445 3.09965 4.75822C3.19342 4.85199 3.2461 4.97917 3.2461 5.11177C3.2461 5.24438 3.19342 5.37156 3.09965 5.46533C3.00589 5.5591 2.87871 5.61177 2.7461 5.61177H0.5C0.367392 5.61177 0.240215 5.5591 0.146447 5.46533C0.0526784 5.37156 0 5.24438 0 5.11177V2.72371C0 2.5911 0.0526784 2.46393 0.146447 2.37016C0.240215 2.27639 0.367392 2.22371 0.5 2.22371C0.632608 2.22371 0.759785 2.27639 0.853554 2.37016C0.947322 2.46393 1 2.5911 1 2.72371V3.8016C1.81421 2.36099 3.0829 1.23084 4.60766 0.587875C6.13242 -0.0550858 7.82727 -0.174596 9.42717 0.248033C11.0271 0.670662 12.4418 1.6116 13.4501 2.9237C14.4584 4.23579 15.0035 5.84506 15 7.49984ZM7 9.93914V7.95953C5.86026 7.7737 5 6.96566 5 5.99984C5 5.03401 5.86026 4.22597 7 4.04015V3.49984C7 3.36723 7.05268 3.24005 7.14645 3.14628C7.24022 3.05252 7.36739 2.99984 7.5 2.99984C7.63261 2.99984 7.75979 3.05252 7.85355 3.14628C7.94732 3.24005 8 3.36723 8 3.49984V4.04015C9.13974 4.22597 10 5.03401 10 5.99984C10 6.13245 9.94732 6.25962 9.85355 6.35339C9.75979 6.44716 9.63261 6.49984 9.5 6.49984C9.36739 6.49984 9.24022 6.44716 9.14645 6.35339C9.05268 6.25962 9 6.13245 9 5.99984C9 5.57411 8.57569 5.20142 8 5.06054V7.04015C9.13974 7.22597 10 8.03401 10 8.99984C10 9.96566 9.13974 10.7737 8 10.9595V11.4998C8 11.6324 7.94732 11.7596 7.85355 11.8534C7.75979 11.9472 7.63261 11.9998 7.5 11.9998C7.36739 11.9998 7.24022 11.9472 7.14645 11.8534C7.05268 11.7596 7 11.6324 7 11.4998V10.9595C5.86026 10.7737 5 9.96566 5 8.99984C5 8.86723 5.05268 8.74005 5.14645 8.64628C5.24022 8.55252 5.36739 8.49984 5.5 8.49984C5.63261 8.49984 5.75979 8.55252 5.85355 8.64628C5.94732 8.74005 6 8.86723 6 8.99984C6 9.42556 6.42431 9.79825 7 9.93914ZM8 8.06054V9.93914C8.57569 9.79825 9 9.42556 9 8.99984C9 8.57411 8.57569 8.20143 8 8.06054ZM7 6.93914V5.06054C6.42431 5.20142 6 5.57411 6 5.99984C6 6.42556 6.42431 6.79825 7 6.93914Z" fill="white"/>
</g>
</g>
</g>
<defs>
<clipPath id="clip0_68_2381">
<rect width="15" height="15" fill="white"/>
</clipPath>
</defs>
</svg>
