<svg width="16" height="16" viewBox="0 0 16 16" fill="none" xmlns="http://www.w3.org/2000/svg">
<path id="circle2017" d="M7.20459 0.448486C3.48555 0.448486 0.456055 3.47798 0.456055 7.19703C0.456055 10.9161 3.48555 13.9515 7.20459 13.9515C8.7931 13.9515 10.254 13.3948 11.4087 12.4705L14.2197 15.28C14.3616 15.416 14.5511 15.491 14.7476 15.489C14.944 15.487 15.1319 15.4082 15.271 15.2693C15.41 15.1304 15.4892 14.9427 15.4915 14.7462C15.4937 14.5497 15.419 14.3601 15.2832 14.2181L12.4722 11.407C13.3972 10.2506 13.9546 8.78738 13.9546 7.19703C13.9546 3.47798 10.9236 0.448486 7.20459 0.448486ZM7.20459 1.94851C10.113 1.94851 12.4531 4.28866 12.4531 7.19703C12.4531 10.1054 10.113 12.4514 7.20459 12.4514C4.29621 12.4514 1.95605 10.1054 1.95605 7.19703C1.95605 4.28866 4.29621 1.94851 7.20459 1.94851Z" fill="#555555"/>
</svg>
