<svg width="19" height="19" viewBox="0 0 19 19" fill="none" xmlns="http://www.w3.org/2000/svg">
<g id="setting 1">
<g id="Glyph">
<path id="Vector" d="M13.4582 3.95834C13.4582 3.48861 13.5975 3.02943 13.8584 2.63887C14.1194 2.2483 14.4903 1.94389 14.9243 1.76413C15.3583 1.58437 15.8358 1.53734 16.2965 1.62898C16.7572 1.72062 17.1804 1.94682 17.5126 2.27897C17.8447 2.61112 18.0709 3.0343 18.1625 3.49501C18.2542 3.95571 18.2071 4.43324 18.0274 4.86722C17.8476 5.30119 17.5432 5.67212 17.1527 5.93308C16.7621 6.19405 16.3029 6.33334 15.8332 6.33334C15.2033 6.33334 14.5992 6.08312 14.1538 5.63772C13.7084 5.19232 13.4582 4.58823 13.4582 3.95834ZM1.58317 4.75001H11.0832C11.2931 4.75001 11.4945 4.6666 11.643 4.51814C11.7914 4.36967 11.8748 4.16831 11.8748 3.95834C11.8748 3.74838 11.7914 3.54702 11.643 3.39855C11.4945 3.25009 11.2931 3.16668 11.0832 3.16668H1.58317C1.37321 3.16668 1.17184 3.25009 1.02338 3.39855C0.874911 3.54702 0.791504 3.74838 0.791504 3.95834C0.791504 4.16831 0.874911 4.36967 1.02338 4.51814C1.17184 4.6666 1.37321 4.75001 1.58317 4.75001ZM6.33317 7.12501C5.84317 7.12639 5.3656 7.27929 4.96591 7.56275C4.56623 7.84622 4.264 8.24637 4.10067 8.70834H1.58317C1.37321 8.70834 1.17184 8.79175 1.02338 8.94022C0.874911 9.08868 0.791504 9.29005 0.791504 9.50001C0.791504 9.70997 0.874911 9.91134 1.02338 10.0598C1.17184 10.2083 1.37321 10.2917 1.58317 10.2917H4.10067C4.2459 10.7025 4.50134 11.0654 4.83901 11.3407C5.17669 11.616 5.5836 11.7932 6.01521 11.8527C6.44681 11.9123 6.88649 11.8519 7.28611 11.6784C7.68573 11.5048 8.0299 11.2246 8.28094 10.8685C8.53199 10.5124 8.68025 10.0941 8.70949 9.65937C8.73872 9.22466 8.64781 8.79028 8.44671 8.40377C8.24561 8.01726 7.94205 7.69352 7.56928 7.46798C7.1965 7.24244 6.76887 7.12379 6.33317 7.12501ZM17.4165 8.70834H11.0832C10.8732 8.70834 10.6718 8.79175 10.5234 8.94022C10.3749 9.08868 10.2915 9.29005 10.2915 9.50001C10.2915 9.70997 10.3749 9.91134 10.5234 10.0598C10.6718 10.2083 10.8732 10.2917 11.0832 10.2917H17.4165C17.6265 10.2917 17.8278 10.2083 17.9763 10.0598C18.1248 9.91134 18.2082 9.70997 18.2082 9.50001C18.2082 9.29005 18.1248 9.08868 17.9763 8.94022C17.8278 8.79175 17.6265 8.70834 17.4165 8.70834ZM7.9165 14.25H1.58317C1.37321 14.25 1.17184 14.3334 1.02338 14.4819C0.874911 14.6304 0.791504 14.8317 0.791504 15.0417C0.791504 15.2516 0.874911 15.453 1.02338 15.6015C1.17184 15.7499 1.37321 15.8333 1.58317 15.8333H7.9165C8.12647 15.8333 8.32783 15.7499 8.4763 15.6015C8.62476 15.453 8.70817 15.2516 8.70817 15.0417C8.70817 14.8317 8.62476 14.6304 8.4763 14.4819C8.32783 14.3334 8.12647 14.25 7.9165 14.25ZM17.4165 14.25H14.899C14.7123 13.7218 14.3448 13.2766 13.8615 12.9931C13.3783 12.7097 12.8104 12.6061 12.2582 12.7009C11.706 12.7956 11.2051 13.0825 10.844 13.5109C10.4829 13.9392 10.2848 14.4814 10.2848 15.0417C10.2848 15.6019 10.4829 16.1441 10.844 16.5725C11.2051 17.0008 11.706 17.2877 12.2582 17.3825C12.8104 17.4772 13.3783 17.3737 13.8615 17.0902C14.3448 16.8067 14.7123 16.3616 14.899 15.8333H17.4165C17.6265 15.8333 17.8278 15.7499 17.9763 15.6015C18.1248 15.453 18.2082 15.2516 18.2082 15.0417C18.2082 14.8317 18.1248 14.6304 17.9763 14.4819C17.8278 14.3334 17.6265 14.25 17.4165 14.25Z" fill="#555555"/>
</g>
</g>
</svg>
