<svg width="22" height="22" viewBox="0 0 22 22" fill="none" xmlns="http://www.w3.org/2000/svg">
<g id="withdraw (1) 1">
<path id="Vector" d="M18.3333 15.3541H13.7499C13.5676 15.3541 13.3927 15.2817 13.2638 15.1528C13.1349 15.0239 13.0624 14.849 13.0624 14.6666C13.0624 14.4843 13.1349 14.3094 13.2638 14.1805C13.3927 14.0516 13.5676 13.9791 13.7499 13.9791H18.3333C18.637 13.9787 18.9282 13.8578 19.1429 13.643C19.3577 13.4282 19.4786 13.1371 19.4791 12.8333V3.66665C19.4786 3.3629 19.3577 3.07174 19.1429 2.85696C18.9282 2.64217 18.637 2.5213 18.3333 2.52081H3.66659C3.36284 2.5213 3.07167 2.64217 2.85689 2.85696C2.64211 3.07174 2.52124 3.3629 2.52075 3.66665V12.8333C2.52124 13.1371 2.64211 13.4282 2.85689 13.643C3.07167 13.8578 3.36284 13.9787 3.66659 13.9791H10.9999C11.1823 13.9791 11.3571 14.0516 11.4861 14.1805C11.615 14.3094 11.6874 14.4843 11.6874 14.6666C11.6874 14.849 11.615 15.0239 11.4861 15.1528C11.3571 15.2817 11.1823 15.3541 10.9999 15.3541H3.66659C2.99817 15.3537 2.35727 15.0879 1.88462 14.6153C1.41198 14.1426 1.14624 13.5017 1.14575 12.8333V3.66665C1.14624 2.99823 1.41198 2.35733 1.88462 1.88468C2.35727 1.41204 2.99817 1.1463 3.66659 1.14581H18.3333C19.0017 1.1463 19.6426 1.41204 20.1152 1.88468C20.5879 2.35733 20.8536 2.99823 20.8541 3.66665V12.8333C20.8536 13.5017 20.5879 14.1426 20.1152 14.6153C19.6426 15.0879 19.0017 15.3537 18.3333 15.3541Z" fill="white"/>
<path id="Vector_2" d="M10.9999 20.8542C10.9096 20.8544 10.8202 20.8367 10.7368 20.8021C10.6534 20.7675 10.5777 20.7166 10.5141 20.6525L7.76411 17.9025C7.64267 17.7722 7.57655 17.5998 7.5797 17.4217C7.58284 17.2436 7.65499 17.0737 7.78095 16.9477C7.90692 16.8217 8.07685 16.7496 8.25496 16.7464C8.43307 16.7433 8.60545 16.8094 8.73577 16.9309L10.9999 19.1941L13.2641 16.9309C13.3944 16.8094 13.5668 16.7433 13.7449 16.7464C13.923 16.7496 14.093 16.8217 14.2189 16.9477C14.3449 17.0737 14.417 17.2436 14.4202 17.4217C14.4233 17.5998 14.3572 17.7722 14.2358 17.9025L11.4858 20.6525C11.4222 20.7166 11.3465 20.7675 11.2631 20.8021C11.1797 20.8367 11.0902 20.8544 10.9999 20.8542Z" fill="white"/>
<path id="Vector_3" d="M11 19.9375C10.8177 19.9375 10.6428 19.8651 10.5139 19.7361C10.3849 19.6072 10.3125 19.4323 10.3125 19.25V11C10.3125 10.8177 10.3849 10.6428 10.5139 10.5139C10.6428 10.3849 10.8177 10.3125 11 10.3125C11.1823 10.3125 11.3572 10.3849 11.4861 10.5139C11.6151 10.6428 11.6875 10.8177 11.6875 11V19.25C11.6875 19.4323 11.6151 19.6072 11.4861 19.7361C11.3572 19.8651 11.1823 19.9375 11 19.9375Z" fill="white"/>
<path id="Vector_4" d="M20.1666 7.10419H1.83325C1.65092 7.10419 1.47605 7.03175 1.34712 6.90282C1.21818 6.77389 1.14575 6.59902 1.14575 6.41669C1.14575 6.23435 1.21818 6.05948 1.34712 5.93055C1.47605 5.80162 1.65092 5.72919 1.83325 5.72919H20.1666C20.3489 5.72919 20.5238 5.80162 20.6527 5.93055C20.7817 6.05948 20.8541 6.23435 20.8541 6.41669C20.8541 6.59902 20.7817 6.77389 20.6527 6.90282C20.5238 7.03175 20.3489 7.10419 20.1666 7.10419Z" fill="white"/>
<path id="Vector_5" d="M7.33325 10.3125H4.58325C4.40092 10.3125 4.22605 10.2401 4.09712 10.1111C3.96818 9.9822 3.89575 9.80734 3.89575 9.625C3.89575 9.44266 3.96818 9.2678 4.09712 9.13886C4.22605 9.00993 4.40092 8.9375 4.58325 8.9375H7.33325C7.51559 8.9375 7.69046 9.00993 7.81939 9.13886C7.94832 9.2678 8.02075 9.44266 8.02075 9.625C8.02075 9.80734 7.94832 9.9822 7.81939 10.1111C7.69046 10.2401 7.51559 10.3125 7.33325 10.3125Z" fill="white"/>
<path id="Vector_6" d="M6.41659 12.6042H4.58325C4.40092 12.6042 4.22605 12.5318 4.09712 12.4028C3.96818 12.2739 3.89575 12.099 3.89575 11.9167C3.89575 11.7344 3.96818 11.5595 4.09712 11.4306C4.22605 11.3016 4.40092 11.2292 4.58325 11.2292H6.41659C6.59892 11.2292 6.77379 11.3016 6.90272 11.4306C7.03165 11.5595 7.10409 11.7344 7.10409 11.9167C7.10409 12.099 7.03165 12.2739 6.90272 12.4028C6.77379 12.5318 6.59892 12.6042 6.41659 12.6042Z" fill="white"/>
</g>
</svg>
